<mxfile host="app.diagrams.net" agent="Mozilla/5.0 (Windows NT 10.0; Win64; x64) AppleWebKit/537.36 (KHTML, like Gecko) Chrome/132.0.0.0 Safari/537.36 Edg/132.0.0.0" version="24.9.1">
  <diagram name="Страница — 1" id="x5CTgRz5mX1aD15onz8F">
    <mxGraphModel dx="1426" dy="781" grid="1" gridSize="10" guides="1" tooltips="1" connect="1" arrows="1" fold="1" page="1" pageScale="1" pageWidth="827" pageHeight="1169" math="0" shadow="0">
      <root>
        <mxCell id="0" />
        <mxCell id="1" parent="0" />
        <mxCell id="uMwf6pk0Zemo-Ssa_uVq-25" style="edgeStyle=orthogonalEdgeStyle;rounded=0;orthogonalLoop=1;jettySize=auto;html=1;exitX=0.5;exitY=1;exitDx=0;exitDy=0;entryX=0.5;entryY=0;entryDx=0;entryDy=0;startArrow=classic;startFill=1;" parent="1" source="uMwf6pk0Zemo-Ssa_uVq-6" target="uMwf6pk0Zemo-Ssa_uVq-8" edge="1">
          <mxGeometry relative="1" as="geometry" />
        </mxCell>
        <mxCell id="uMwf6pk0Zemo-Ssa_uVq-28" style="edgeStyle=orthogonalEdgeStyle;rounded=0;orthogonalLoop=1;jettySize=auto;html=1;exitX=0.5;exitY=1;exitDx=0;exitDy=0;entryX=0.5;entryY=0;entryDx=0;entryDy=0;" parent="1" source="uMwf6pk0Zemo-Ssa_uVq-6" target="uMwf6pk0Zemo-Ssa_uVq-17" edge="1">
          <mxGeometry relative="1" as="geometry" />
        </mxCell>
        <mxCell id="uMwf6pk0Zemo-Ssa_uVq-29" style="edgeStyle=orthogonalEdgeStyle;rounded=0;orthogonalLoop=1;jettySize=auto;html=1;exitX=0.5;exitY=1;exitDx=0;exitDy=0;" parent="1" source="uMwf6pk0Zemo-Ssa_uVq-6" target="uMwf6pk0Zemo-Ssa_uVq-20" edge="1">
          <mxGeometry relative="1" as="geometry" />
        </mxCell>
        <mxCell id="uMwf6pk0Zemo-Ssa_uVq-30" style="edgeStyle=orthogonalEdgeStyle;shape=flexArrow;rounded=0;orthogonalLoop=1;jettySize=auto;html=1;exitX=0.5;exitY=0;exitDx=0;exitDy=0;startArrow=block;" parent="1" source="uMwf6pk0Zemo-Ssa_uVq-6" edge="1">
          <mxGeometry relative="1" as="geometry">
            <mxPoint x="425" y="30" as="targetPoint" />
          </mxGeometry>
        </mxCell>
        <mxCell id="uMwf6pk0Zemo-Ssa_uVq-6" value="Api / Gateway" style="rounded=1;whiteSpace=wrap;html=1;fillColor=#bac8d3;strokeColor=#23445d;" parent="1" vertex="1">
          <mxGeometry x="290" y="100" width="270" height="40" as="geometry" />
        </mxCell>
        <mxCell id="uMwf6pk0Zemo-Ssa_uVq-8" value="" style="rounded=0;whiteSpace=wrap;html=1;" parent="1" vertex="1">
          <mxGeometry x="30" y="240" width="210" height="320" as="geometry" />
        </mxCell>
        <mxCell id="uMwf6pk0Zemo-Ssa_uVq-9" value="MongoDB" style="shape=cylinder3;whiteSpace=wrap;html=1;boundedLbl=1;backgroundOutline=1;size=15;fillColor=#dae8fc;gradientColor=#7ea6e0;strokeColor=#6c8ebf;" parent="1" vertex="1">
          <mxGeometry x="90" y="440" width="80" height="80" as="geometry" />
        </mxCell>
        <mxCell id="uMwf6pk0Zemo-Ssa_uVq-16" value="User" style="text;strokeColor=none;fillColor=none;html=1;fontSize=24;fontStyle=1;verticalAlign=middle;align=center;" parent="1" vertex="1">
          <mxGeometry x="20" y="200" width="100" height="40" as="geometry" />
        </mxCell>
        <mxCell id="uMwf6pk0Zemo-Ssa_uVq-17" value="" style="rounded=0;whiteSpace=wrap;html=1;" parent="1" vertex="1">
          <mxGeometry x="320" y="240" width="210" height="320" as="geometry" />
        </mxCell>
        <mxCell id="uMwf6pk0Zemo-Ssa_uVq-18" value="Blog" style="text;strokeColor=none;fillColor=none;html=1;fontSize=24;fontStyle=1;verticalAlign=middle;align=center;" parent="1" vertex="1">
          <mxGeometry x="314" y="200" width="100" height="40" as="geometry" />
        </mxCell>
        <mxCell id="uMwf6pk0Zemo-Ssa_uVq-19" value="PostgreSQL" style="shape=cylinder3;whiteSpace=wrap;html=1;boundedLbl=1;backgroundOutline=1;size=15;fillColor=#ffcc99;strokeColor=#36393d;" parent="1" vertex="1">
          <mxGeometry x="385" y="460" width="80" height="80" as="geometry" />
        </mxCell>
        <mxCell id="uMwf6pk0Zemo-Ssa_uVq-20" value="" style="rounded=0;whiteSpace=wrap;html=1;" parent="1" vertex="1">
          <mxGeometry x="590" y="240" width="210" height="320" as="geometry" />
        </mxCell>
        <mxCell id="uMwf6pk0Zemo-Ssa_uVq-21" value="Utilites" style="text;strokeColor=none;fillColor=none;html=1;fontSize=24;fontStyle=1;verticalAlign=middle;align=center;" parent="1" vertex="1">
          <mxGeometry x="590" y="200" width="100" height="40" as="geometry" />
        </mxCell>
        <mxCell id="uMwf6pk0Zemo-Ssa_uVq-22" value="" style="shape=message;html=1;html=1;outlineConnect=0;labelPosition=center;verticalLabelPosition=bottom;align=center;verticalAlign=top;fillColor=#0050ef;fontColor=#ffffff;strokeColor=#001DBC;" parent="1" vertex="1">
          <mxGeometry x="670" y="475" width="90" height="50" as="geometry" />
        </mxCell>
        <UserObject label="&lt;font style=&quot;font-size: 14px;&quot;&gt;RabbitMQ&lt;/font&gt;" placeholders="1" name="Variable" id="uMwf6pk0Zemo-Ssa_uVq-24">
          <mxCell style="text;html=1;strokeColor=none;fillColor=none;align=center;verticalAlign=middle;whiteSpace=wrap;overflow=hidden;" parent="1" vertex="1">
            <mxGeometry x="610" y="430" width="80" height="20" as="geometry" />
          </mxCell>
        </UserObject>
        <mxCell id="QAvZdZek9EZtHZyB4qFJ-1" value="&lt;b&gt;&lt;font style=&quot;font-size: 16px;&quot;&gt;Authorization&lt;/font&gt;&lt;/b&gt;" style="rounded=0;whiteSpace=wrap;html=1;" vertex="1" parent="1">
          <mxGeometry x="50" y="260" width="120" height="40" as="geometry" />
        </mxCell>
        <mxCell id="QAvZdZek9EZtHZyB4qFJ-2" value="&lt;span style=&quot;font-size: 16px;&quot;&gt;&lt;b&gt;Blog-Users&lt;/b&gt;&lt;/span&gt;" style="rounded=0;whiteSpace=wrap;html=1;" vertex="1" parent="1">
          <mxGeometry x="50" y="320" width="120" height="40" as="geometry" />
        </mxCell>
        <mxCell id="QAvZdZek9EZtHZyB4qFJ-3" value="&lt;b&gt;&lt;font style=&quot;font-size: 16px;&quot;&gt;Posts&lt;/font&gt;&lt;/b&gt;" style="rounded=0;whiteSpace=wrap;html=1;" vertex="1" parent="1">
          <mxGeometry x="340" y="260" width="120" height="40" as="geometry" />
        </mxCell>
        <mxCell id="QAvZdZek9EZtHZyB4qFJ-4" value="&lt;b&gt;&lt;font style=&quot;font-size: 16px;&quot;&gt;Comments&lt;/font&gt;&lt;/b&gt;" style="rounded=0;whiteSpace=wrap;html=1;" vertex="1" parent="1">
          <mxGeometry x="340" y="320" width="120" height="40" as="geometry" />
        </mxCell>
        <mxCell id="QAvZdZek9EZtHZyB4qFJ-5" value="&lt;b&gt;&lt;font style=&quot;font-size: 16px;&quot;&gt;Likes&lt;/font&gt;&lt;/b&gt;" style="rounded=0;whiteSpace=wrap;html=1;" vertex="1" parent="1">
          <mxGeometry x="340" y="380" width="120" height="40" as="geometry" />
        </mxCell>
        <mxCell id="QAvZdZek9EZtHZyB4qFJ-6" value="&lt;b&gt;&lt;font style=&quot;font-size: 16px;&quot;&gt;File-Vault&lt;/font&gt;&lt;/b&gt;" style="rounded=0;whiteSpace=wrap;html=1;" vertex="1" parent="1">
          <mxGeometry x="610" y="260" width="120" height="40" as="geometry" />
        </mxCell>
        <mxCell id="QAvZdZek9EZtHZyB4qFJ-7" value="&lt;b&gt;&lt;font style=&quot;font-size: 16px;&quot;&gt;Notify&lt;/font&gt;&lt;/b&gt;" style="rounded=0;whiteSpace=wrap;html=1;" vertex="1" parent="1">
          <mxGeometry x="610" y="320" width="120" height="40" as="geometry" />
        </mxCell>
        <mxCell id="QAvZdZek9EZtHZyB4qFJ-11" value="" style="ellipse;whiteSpace=wrap;html=1;" vertex="1" parent="1">
          <mxGeometry x="827" y="590" width="3" height="10" as="geometry" />
        </mxCell>
      </root>
    </mxGraphModel>
  </diagram>
</mxfile>
